<svg xmlns="http://www.w3.org/2000/svg" width="15.917" height="20" viewBox="0 0 15.917 20">
  <path id="add-user" d="M9.959,2a5.373,5.373,0,1,0,5.373,5.373A5.357,5.357,0,0,0,9.959,2Zm0,1.516A3.857,3.857,0,1,1,6.1,7.373,3.841,3.841,0,0,1,9.959,3.515Zm0,11.07c-5.082,0-7.958.964-7.958,3.7S4.89,22,9.959,22l.65-.006c4.675-.082,7.308-1.078,7.308-3.691,0-2.676-2.765-3.674-7.631-3.717Zm0,1.516c4.245,0,6.443.747,6.443,2.2s-2.193,2.181-6.443,2.181-6.443-.748-6.443-2.2c0-1.408,2.075-2.141,6.1-2.18Z" transform="translate(-2 -2)" fill="#c4c6cc" fill-rule="evenodd"/>
</svg>
