<svg xmlns="http://www.w3.org/2000/svg" width="12.448" height="13.832" viewBox="0 0 12.448 13.832">
  <path id="calendar.5" d="M12.28,2.417a.479.479,0,0,0-.953.065v.533h-4.2V2.482l0-.065a.479.479,0,0,0-.953.065v.545A3.189,3.189,0,0,0,3,6.485v5.822a3.258,3.258,0,0,0,3.524,3.524h5.4a3.233,3.233,0,0,0,3.524-3.476V6.485a3.178,3.178,0,0,0-3.164-3.458V2.482Zm-.953,1.564V4.6l0,.065a.479.479,0,0,0,.953-.065V4a2.221,2.221,0,0,1,2.206,2.489v.279H3.958V6.485A2.232,2.232,0,0,1,6.17,4v.6l0,.065A.479.479,0,0,0,7.127,4.6V3.981ZM3.958,7.728v4.579a2.31,2.31,0,0,0,2.567,2.559h5.4a2.286,2.286,0,0,0,2.567-2.511V7.728Zm8.587,2.03a.481.481,0,0,0-.479-.483l-.071,0a.483.483,0,0,0,.071.961l.065,0A.481.481,0,0,0,12.545,9.758ZM9.233,9.276a.483.483,0,0,1,.065.961l-.065,0a.483.483,0,0,1-.071-.961Zm-2.36.483a.481.481,0,0,0-.479-.483l-.071,0a.483.483,0,0,0,.065.961l.071,0A.481.481,0,0,0,6.873,9.758Zm5.193,2.018a.483.483,0,0,1,.065.961l-.065,0a.483.483,0,0,1-.071-.961Zm-2.354.483a.481.481,0,0,0-.479-.483l-.071,0a.483.483,0,0,0,.071.961l.065,0A.481.481,0,0,0,9.712,12.259Zm-3.317-.483a.483.483,0,0,1,.065.961l-.071,0a.483.483,0,0,1-.065-.961Z" transform="translate(-3 -2)" fill="#223535" fill-rule="evenodd"/>
</svg>
