<svg xmlns="http://www.w3.org/2000/svg" width="25.351" height="25.351" viewBox="0 0 25.351 25.351">
  <path id="buy.4" d="M26.7,7.913a2.628,2.628,0,0,0-2-.935H11.081a.97.97,0,0,0,0,1.94H24.7a.737.737,0,0,1,.567.264.768.768,0,0,1,.175.611l-1.2,8.484a1.352,1.352,0,0,1-1.322,1.167H9.087a1.338,1.338,0,0,1-1.331-1.248L6.535,3.356a.963.963,0,0,0-.785-.876L3.113,2.013a.953.953,0,0,0-1.1.792.97.97,0,0,0,.774,1.121L4.7,4.264,5.861,18.356a3.244,3.244,0,0,0,3.226,3.027h13.83a3.274,3.274,0,0,0,3.2-2.829l1.2-8.484A2.742,2.742,0,0,0,26.7,7.913ZM6.954,25.393a1.92,1.92,0,1,1,1.92,1.958A1.943,1.943,0,0,1,6.954,25.393Zm14.264,0a1.92,1.92,0,1,1,1.919,1.958A1.942,1.942,0,0,1,21.217,25.393Zm.619-12.664a.961.961,0,0,1-.951.97H17.37a.97.97,0,0,1,0-1.94h3.515A.961.961,0,0,1,21.836,12.729Z" transform="translate(-2 -2)" fill="#fff" fill-rule="evenodd"/>
</svg>
