<svg xmlns="http://www.w3.org/2000/svg" width="22.816" height="25.351" viewBox="0 0 22.816 25.351">
  <path id="document.3" d="M9.512,27.351a8.8,8.8,0,0,1-1.484-.12l-.276-.052C4.746,26.554,3,24.252,3,20.749V8.6a9.388,9.388,0,0,1,.076-1.217C3.518,3.982,5.857,2,9.512,2H19.3c4.051,0,6.473,2.434,6.511,6.505V20.749c0,4.128-2.429,6.6-6.511,6.6Zm0-23.5c-3.113,0-4.691,1.6-4.691,4.756V20.749C4.821,23.9,6.4,25.5,9.512,25.5h9.781c3.112,0,4.68-1.6,4.68-4.756V8.6c0-3.155-1.568-4.756-4.68-4.756Zm10.353,16.2a.911.911,0,0,0-.9-.918H9.822a.918.918,0,0,0,0,1.835h9.14A.911.911,0,0,0,19.866,20.043Zm-.9-6.291a.916.916,0,0,1,.876.43.944.944,0,0,1,0,.989.916.916,0,0,1-.876.43H9.822a.931.931,0,0,1,0-1.848ZM14.125,9.315a.924.924,0,0,0-.815-.924H9.833a.93.93,0,0,0,0,1.847H13.31A.924.924,0,0,0,14.125,9.315Z" transform="translate(-3 -2)" fill="#fff" fill-rule="evenodd"/>
</svg>
