<svg xmlns="http://www.w3.org/2000/svg" width="249.661" height="83.396" viewBox="0 0 249.661 83.396">
  <g id="Group_5" data-name="Group 5" transform="translate(-98.428 -366.139)">
    <g id="Group_1" data-name="Group 1" transform="translate(100.967 441.736)">
      <path id="Path_1" data-name="Path 1" d="M108.6,633.445c.055,0,.094.048.116.145l1.34,5.994q.008.078.066.078h.042c.033,0,.055-.026.066-.078l1.34-5.493a1.012,1.012,0,0,1,.24-.512.537.537,0,0,1,.372-.134H113a.565.565,0,0,1,.418.145,1.1,1.1,0,0,1,.236.5l1.373,5.493q.017.078.066.078h.05q.049,0,.066-.078l1.307-5.994a.186.186,0,0,1,.054-.117.13.13,0,0,1,.079-.028h1.117c.044,0,.07.026.079.078a.454.454,0,0,1-.012.178l-1.588,6.7a1.8,1.8,0,0,1-.257.674.465.465,0,0,1-.381.173h-.967a.447.447,0,0,1-.376-.178A2,2,0,0,1,114,640.4l-1.3-5.292c-.006-.052-.028-.078-.066-.078H112.6c-.038,0-.061.026-.066.078l-1.315,5.292a1.99,1.99,0,0,1-.26.668.448.448,0,0,1-.376.178h-.943a.785.785,0,0,1-.244-.034.413.413,0,0,1-.186-.128.839.839,0,0,1-.145-.262,3.4,3.4,0,0,1-.12-.423l-1.522-6.7a.494.494,0,0,1-.012-.184.075.075,0,0,1,.079-.072Z" transform="translate(-107.408 -633.445)" fill="#fff"/>
      <path id="Path_2" data-name="Path 2" d="M152,633.445q.19,0,.19.245v1.059q0,.245-.19.245h-3.615a1.665,1.665,0,0,0-.534.072.691.691,0,0,0-.339.245,1.077,1.077,0,0,0-.178.468,4.505,4.505,0,0,0-.05.73v.111h4.674c.121,0,.182.082.182.245v.88q0,.245-.182.245h-4.674v.189a4.5,4.5,0,0,0,.05.73,1.074,1.074,0,0,0,.178.468.69.69,0,0,0,.339.245,1.657,1.657,0,0,0,.534.072H152c.127,0,.19.082.19.245V641q0,.245-.19.245h-3.639a3.207,3.207,0,0,1-1.067-.156,1.556,1.556,0,0,1-.715-.507,2.266,2.266,0,0,1-.406-.913,6.243,6.243,0,0,1-.128-1.365v-1.916a6.17,6.17,0,0,1,.128-1.359,2.265,2.265,0,0,1,.406-.908,1.59,1.59,0,0,1,.715-.512,3.1,3.1,0,0,1,1.067-.162Z" transform="translate(-135.119 -633.445)" fill="#fff"/>
      <path id="Path_3" data-name="Path 3" d="M183.535,633.445a.817.817,0,0,1,.529.173,1.718,1.718,0,0,1,.422.674l2.738,6.7a.3.3,0,0,1,.02.184q-.021.073-.12.072h-1.05a.189.189,0,0,1-.19-.145l-.587-1.437h-3.888l-.571,1.437a.2.2,0,0,1-.19.145h-1.075q-.108,0-.128-.072a.3.3,0,0,1,.021-.184l2.713-6.7a1.872,1.872,0,0,1,.405-.674.684.684,0,0,1,.464-.173Zm-1.6,4.925h2.846l-1.315-3.264c-.022-.052-.053-.078-.091-.078h-.049c-.039,0-.069.026-.091.078Z" transform="translate(-159.067 -633.445)" fill="#fff"/>
      <path id="Path_4" data-name="Path 4" d="M209.313,633.445q.182,0,.182.245v4.446a4.235,4.235,0,0,0,.054.741,1.157,1.157,0,0,0,.178.468.669.669,0,0,0,.335.245,1.665,1.665,0,0,0,.534.072h3.35q.182,0,.182.245V641q0,.245-.182.245h-3.4a3.207,3.207,0,0,1-1.067-.156,1.556,1.556,0,0,1-.715-.507,2.262,2.262,0,0,1-.405-.913,6.224,6.224,0,0,1-.128-1.365V633.69q0-.245.19-.245Z" transform="translate(-179.716 -633.445)" fill="#fff"/>
      <path id="Path_5" data-name="Path 5" d="M229.192,633.445q.083,0,.116.145l1.34,5.994q.008.078.066.078h.042c.033,0,.055-.026.066-.078l1.34-5.493a1.012,1.012,0,0,1,.24-.512.536.536,0,0,1,.372-.134h.819a.566.566,0,0,1,.418.145,1.1,1.1,0,0,1,.236.5l1.373,5.493q.017.078.066.078h.049q.05,0,.066-.078l1.307-5.994a.186.186,0,0,1,.054-.117.13.13,0,0,1,.079-.028h1.117q.066,0,.079.078a.444.444,0,0,1-.012.178l-1.588,6.7a1.8,1.8,0,0,1-.257.674.465.465,0,0,1-.381.173h-.968a.447.447,0,0,1-.376-.178,1.99,1.99,0,0,1-.26-.668l-1.3-5.292c-.006-.052-.028-.078-.066-.078H233.2c-.039,0-.061.026-.066.078l-1.315,5.292a1.99,1.99,0,0,1-.26.668.448.448,0,0,1-.376.178h-.943a.785.785,0,0,1-.244-.034.413.413,0,0,1-.186-.128.839.839,0,0,1-.145-.262,3.4,3.4,0,0,1-.12-.423l-1.522-6.7a.488.488,0,0,1-.012-.184.075.075,0,0,1,.079-.072Z" transform="translate(-193.896 -633.445)" fill="#fff"/>
      <path id="Path_6" data-name="Path 6" d="M266.837,633.445a.817.817,0,0,1,.529.173,1.719,1.719,0,0,1,.422.674l2.738,6.7a.3.3,0,0,1,.021.184q-.021.073-.12.072h-1.051a.189.189,0,0,1-.19-.145l-.587-1.437h-3.888l-.571,1.437a.2.2,0,0,1-.19.145h-1.075q-.108,0-.128-.072a.3.3,0,0,1,.021-.184l2.713-6.7a1.864,1.864,0,0,1,.405-.674.683.683,0,0,1,.463-.173Zm-1.6,4.925h2.846l-1.315-3.264c-.022-.052-.053-.078-.091-.078h-.049c-.039,0-.069.026-.091.078Z" transform="translate(-218.81 -633.445)" fill="#fff"/>
      <path id="Path_7" data-name="Path 7" d="M287.408,633.445a.213.213,0,0,1,.2.134l2.208,4.022,2.225-4.022a.212.212,0,0,1,.2-.134h1.084a.093.093,0,0,1,.091.072.185.185,0,0,1-.017.15l-2.969,5.192V641q0,.245-.182.245h-.893q-.19,0-.19-.245V638.86l-2.937-5.192a.2.2,0,0,1-.021-.15.091.091,0,0,1,.1-.072Z" transform="translate(-235.634 -633.445)" fill="#fff"/>
      <path id="Path_8" data-name="Path 8" d="M318.527,633.445q.182,0,.182.245v1.059q0,.245-.182.245h-4.144a.362.362,0,0,0-.339.167.892.892,0,0,0-.1.457V636q0,.624.43.624h3.1a1.258,1.258,0,0,1,1.083.5,2.373,2.373,0,0,1,.364,1.421v.891a2.226,2.226,0,0,1-.356,1.315,1.266,1.266,0,0,1-1.109.5h-4.583q-.19,0-.19-.245v-1.059c0-.163.063-.245.19-.245h4.343a.362.362,0,0,0,.339-.167.894.894,0,0,0,.1-.457v-.457q0-.624-.43-.624h-3.1a1.257,1.257,0,0,1-1.084-.5,2.371,2.371,0,0,1-.364-1.42v-.813a2.225,2.225,0,0,1,.355-1.315,1.266,1.266,0,0,1,1.108-.5Z" transform="translate(-254.626 -633.445)" fill="#fff"/>
      <path id="Path_9" data-name="Path 9" d="M352.584,633.445a1.561,1.561,0,0,1,1.365.579,2.947,2.947,0,0,1,.413,1.716v.635a3.317,3.317,0,0,1-.289,1.515,1.363,1.363,0,0,1-.943.713l1.414,2.362a.224.224,0,0,1,.025.167.119.119,0,0,1-.132.111H353.37a.243.243,0,0,1-.149-.034.351.351,0,0,1-.083-.111l-1.307-2.318H349.16V641q0,.245-.182.245h-.893q-.19,0-.19-.245v-7.22q0-.334.248-.334Zm-3.425,3.978h3.168a.679.679,0,0,0,.6-.245,1.3,1.3,0,0,0,.174-.747v-.468a1.3,1.3,0,0,0-.174-.747.68.68,0,0,0-.6-.245h-3.061c-.072,0-.107.045-.107.134Z" transform="translate(-279.882 -633.445)" fill="#fff"/>
      <path id="Path_10" data-name="Path 10" d="M379.56,633.445q.19,0,.19.245v1.059q0,.245-.19.245h-3.615a1.665,1.665,0,0,0-.534.072.691.691,0,0,0-.339.245,1.077,1.077,0,0,0-.178.468,4.509,4.509,0,0,0-.049.73v.111h4.673c.121,0,.182.082.182.245v.88q0,.245-.182.245h-4.673v.189a4.506,4.506,0,0,0,.049.73,1.073,1.073,0,0,0,.178.468.69.69,0,0,0,.339.245,1.657,1.657,0,0,0,.534.072h3.615c.127,0,.19.082.19.245V641q0,.245-.19.245H375.92a3.207,3.207,0,0,1-1.067-.156,1.556,1.556,0,0,1-.716-.507,2.262,2.262,0,0,1-.405-.913,6.223,6.223,0,0,1-.128-1.365v-1.916a6.15,6.15,0,0,1,.128-1.359,2.26,2.26,0,0,1,.405-.908,1.59,1.59,0,0,1,.716-.512,3.1,3.1,0,0,1,1.067-.162Z" transform="translate(-298.321 -633.445)" fill="#fff"/>
      <path id="Path_11" data-name="Path 11" d="M401.3,633.445a.817.817,0,0,1,.529.173,1.718,1.718,0,0,1,.422.674l2.738,6.7a.3.3,0,0,1,.021.184q-.021.073-.12.072h-1.051a.189.189,0,0,1-.19-.145l-.587-1.437H399.17L398.6,641.1a.2.2,0,0,1-.19.145h-1.075c-.072,0-.115-.024-.128-.072a.3.3,0,0,1,.021-.184l2.713-6.7a1.864,1.864,0,0,1,.405-.674.682.682,0,0,1,.463-.173Zm-1.6,4.925h2.846l-1.315-3.264c-.022-.052-.052-.078-.091-.078h-.049c-.039,0-.069.026-.091.078Z" transform="translate(-315.243 -633.445)" fill="#fff"/>
      <path id="Path_12" data-name="Path 12" d="M431.86,633.445q.182,0,.182.245v1.092c0,.171-.061.256-.182.256h-3.681a1.672,1.672,0,0,0-.534.072.671.671,0,0,0-.335.245,1.142,1.142,0,0,0-.178.463,4.136,4.136,0,0,0-.054.735v1.583a4.232,4.232,0,0,0,.054.741,1.148,1.148,0,0,0,.178.468.667.667,0,0,0,.335.245,1.665,1.665,0,0,0,.534.072h3.681q.182,0,.182.245V641q0,.245-.182.245h-3.731a3.208,3.208,0,0,1-1.067-.156,1.556,1.556,0,0,1-.715-.507,2.265,2.265,0,0,1-.405-.913,6.223,6.223,0,0,1-.128-1.365v-1.916a6.15,6.15,0,0,1,.128-1.359,2.264,2.264,0,0,1,.405-.908,1.59,1.59,0,0,1,.715-.512,3.1,3.1,0,0,1,1.067-.162Z" transform="translate(-335.765 -633.445)" fill="#fff"/>
      <path id="Path_13" data-name="Path 13" d="M452.052,633.445q.182,0,.182.245v2.9H456.1v-2.9q0-.245.182-.245h.893q.19,0,.19.245V641q0,.245-.19.245h-.893q-.182,0-.182-.245v-2.964h-3.871V641q0,.245-.182.245h-.893q-.19,0-.19-.245V633.69q0-.245.19-.245Z" transform="translate(-353.806 -633.445)" fill="#fff"/>
      <path id="Path_14" data-name="Path 14" d="M492.659,633.445q.19,0,.19.245v1.092c0,.171-.064.256-.19.256h-2.6V641q0,.245-.182.245h-.9q-.182,0-.182-.245v-5.961h-2.6c-.127,0-.19-.085-.19-.256V633.69c0-.163.063-.245.19-.245Z" transform="translate(-378.936 -633.445)" fill="#fff"/>
      <path id="Path_15" data-name="Path 15" d="M513.883,633.445q.182,0,.182.245v2.9h3.871v-2.9q0-.245.182-.245h.893q.19,0,.19.245V641q0,.245-.19.245h-.893q-.182,0-.182-.245v-2.964h-3.871V641q0,.245-.182.245h-.893c-.127,0-.19-.082-.19-.245V633.69c0-.163.063-.245.19-.245Z" transform="translate(-398.151 -633.445)" fill="#fff"/>
      <path id="Path_16" data-name="Path 16" d="M545.021,633.445q.19,0,.19.245v1.059q0,.245-.19.245h-3.615a1.665,1.665,0,0,0-.534.072.692.692,0,0,0-.339.245,1.077,1.077,0,0,0-.178.468,4.509,4.509,0,0,0-.049.73v.111h4.673c.121,0,.182.082.182.245v.88q0,.245-.182.245h-4.673v.189a4.506,4.506,0,0,0,.049.73,1.073,1.073,0,0,0,.178.468.69.69,0,0,0,.339.245,1.656,1.656,0,0,0,.534.072h3.615c.127,0,.19.082.19.245V641q0,.245-.19.245h-3.639a3.207,3.207,0,0,1-1.067-.156,1.556,1.556,0,0,1-.716-.507,2.266,2.266,0,0,1-.406-.913,6.239,6.239,0,0,1-.128-1.365v-1.916a6.167,6.167,0,0,1,.128-1.359,2.265,2.265,0,0,1,.406-.908,1.59,1.59,0,0,1,.716-.512,3.1,3.1,0,0,1,1.067-.162Z" transform="translate(-416.988 -633.445)" fill="#fff"/>
      <path id="Path_17" data-name="Path 17" d="M579.352,633.445q.19,0,.19.245v1.092c0,.171-.064.256-.19.256h-2.6V641q0,.245-.182.245h-.9q-.182,0-.182-.245v-5.961h-2.6c-.127,0-.19-.085-.19-.256V633.69q0-.245.19-.245Z" transform="translate(-441.112 -633.445)" fill="#fff"/>
      <path id="Path_18" data-name="Path 18" d="M603.546,633.445a3.135,3.135,0,0,1,1.071.162,1.591,1.591,0,0,1,.72.512,2.223,2.223,0,0,1,.4.908,6.352,6.352,0,0,1,.124,1.359V638.3a6.427,6.427,0,0,1-.124,1.365,2.225,2.225,0,0,1-.4.913,1.557,1.557,0,0,1-.72.507,3.246,3.246,0,0,1-1.071.156H600.99a3.207,3.207,0,0,1-1.067-.156,1.556,1.556,0,0,1-.716-.507,2.267,2.267,0,0,1-.405-.913,6.223,6.223,0,0,1-.128-1.365v-1.916a6.15,6.15,0,0,1,.128-1.359,2.266,2.266,0,0,1,.405-.908,1.59,1.59,0,0,1,.716-.512,3.1,3.1,0,0,1,1.067-.162Zm-3.607,4.735a4.151,4.151,0,0,0,.054.73,1.144,1.144,0,0,0,.178.468.666.666,0,0,0,.335.245,1.655,1.655,0,0,0,.533.072H603.5a1.656,1.656,0,0,0,.534-.072.668.668,0,0,0,.335-.245,1.153,1.153,0,0,0,.178-.468,4.19,4.19,0,0,0,.054-.73v-1.671a4.193,4.193,0,0,0-.054-.73,1.157,1.157,0,0,0-.178-.468.67.67,0,0,0-.335-.245,1.665,1.665,0,0,0-.534-.072H601.04a1.664,1.664,0,0,0-.533.072.668.668,0,0,0-.335.245,1.148,1.148,0,0,0-.178.468,4.154,4.154,0,0,0-.054.73Z" transform="translate(-459.739 -633.445)" fill="#fff"/>
      <path id="Path_19" data-name="Path 19" d="M632.409,633.445a1.561,1.561,0,0,1,1.365.579,2.947,2.947,0,0,1,.413,1.716v.825a2.945,2.945,0,0,1-.413,1.716,1.56,1.56,0,0,1-1.365.579h-3.425V641q0,.245-.182.245h-.893c-.127,0-.19-.082-.19-.245v-7.22q0-.334.248-.334Zm-3.425,3.944h3.168a.679.679,0,0,0,.6-.245,1.3,1.3,0,0,0,.174-.747v-.423a1.3,1.3,0,0,0-.174-.747.68.68,0,0,0-.6-.245h-3.061c-.072,0-.107.045-.107.134Z" transform="translate(-480.57 -633.445)" fill="#fff"/>
    </g>
    <g id="Group_2" data-name="Group 2" transform="translate(180.912 383.572)">
      <path id="Path_20" data-name="Path 20" d="M405.126,451.306q.523,0,.523.59v2.753q0,.59-.523.59H397.4a5.537,5.537,0,0,0-1.539.18,2.033,2.033,0,0,0-.972.59,2.365,2.365,0,0,0-.508,1.114,8.673,8.673,0,0,0-.145,1.721v9.733q0,.722-.639.721h-2.845q-.668,0-.668-.721V457.959a11.51,11.51,0,0,1,.348-3.031,4.6,4.6,0,0,1,1.147-2.065,4.764,4.764,0,0,1,2.119-1.18,12.226,12.226,0,0,1,3.3-.377Z" transform="translate(-390.089 -444.653)" fill="#fff"/>
      <path id="Path_21" data-name="Path 21" d="M464.588,451.306a12.264,12.264,0,0,1,3.28.377,4.772,4.772,0,0,1,2.133,1.18,4.6,4.6,0,0,1,1.147,2.065,11.509,11.509,0,0,1,.348,3.031v8.717a6.8,6.8,0,0,1-.1,1.294,1.778,1.778,0,0,1-.348.8,1.28,1.28,0,0,1-.653.41,3.925,3.925,0,0,1-1.045.115H455.53a6.98,6.98,0,0,1-2.133-.279,3.2,3.2,0,0,1-1.379-.836,3.166,3.166,0,0,1-.74-1.442,8.854,8.854,0,0,1-.218-2.1v-1.573a6.954,6.954,0,0,1,.218-1.819,3.162,3.162,0,0,1,.74-1.36,3.209,3.209,0,0,1,1.379-.835,6.989,6.989,0,0,1,2.133-.279h11.815v-.623a5.4,5.4,0,0,0-.145-1.344,1.916,1.916,0,0,0-.494-.9,2.115,2.115,0,0,0-.958-.508,6.2,6.2,0,0,0-1.568-.164H452.047q-.523,0-.523-.59V451.9q0-.59.523-.59Zm1.916,14.387a.776.776,0,0,0,.653-.246,1.48,1.48,0,0,0,.189-.869v-2.884H456.721a1.626,1.626,0,0,0-1.263.41,1.749,1.749,0,0,0-.363,1.2v.688a1.917,1.917,0,0,0,.363,1.294,1.623,1.623,0,0,0,1.263.41Z" transform="translate(-433.817 -444.653)" fill="#fff"/>
      <path id="Path_22" data-name="Path 22" d="M537.509,428.014q.638,0,.639.721V434.6h10.886a12.263,12.263,0,0,1,3.28.377,4.773,4.773,0,0,1,2.134,1.18,4.6,4.6,0,0,1,1.147,2.065,11.508,11.508,0,0,1,.348,3.031v4.719a11.507,11.507,0,0,1-.348,3.031,4.3,4.3,0,0,1-3.28,3.228,12.76,12.76,0,0,1-3.28.361h-8.128a12.721,12.721,0,0,1-3.295-.361A4.311,4.311,0,0,1,534.344,449a11.507,11.507,0,0,1-.348-3.031V428.735q0-.72.668-.721Zm.639,10.52v6.522a8.618,8.618,0,0,0,.145,1.737,2.354,2.354,0,0,0,.508,1.1,2.028,2.028,0,0,0,.973.59,5.524,5.524,0,0,0,1.538.18h7.315a5.656,5.656,0,0,0,1.568-.18,2.03,2.03,0,0,0,.973-.59,2.361,2.361,0,0,0,.508-1.1,8.635,8.635,0,0,0,.145-1.737v-2.917a8.69,8.69,0,0,0-.145-1.721,2.375,2.375,0,0,0-.508-1.114,2.037,2.037,0,0,0-.973-.59,5.664,5.664,0,0,0-1.568-.18Z" transform="translate(-493.298 -427.948)" fill="#fff"/>
      <path id="Path_23" data-name="Path 23" d="M626.912,428.014q.638,0,.639.721V434.6h10.886a12.265,12.265,0,0,1,3.28.377,4.774,4.774,0,0,1,2.134,1.18A4.6,4.6,0,0,1,645,438.223a11.509,11.509,0,0,1,.348,3.031v4.719A11.508,11.508,0,0,1,645,449a4.3,4.3,0,0,1-3.28,3.228,12.763,12.763,0,0,1-3.28.361h-8.128a12.721,12.721,0,0,1-3.295-.361A4.31,4.31,0,0,1,623.748,449a11.5,11.5,0,0,1-.348-3.031V428.735q0-.72.668-.721Zm.639,10.52v6.522a8.613,8.613,0,0,0,.145,1.737,2.351,2.351,0,0,0,.508,1.1,2.027,2.027,0,0,0,.972.59,5.529,5.529,0,0,0,1.539.18h7.315a5.657,5.657,0,0,0,1.568-.18,2.03,2.03,0,0,0,.972-.59,2.359,2.359,0,0,0,.508-1.1,8.633,8.633,0,0,0,.145-1.737v-2.917a8.688,8.688,0,0,0-.145-1.721,2.373,2.373,0,0,0-.508-1.114,2.036,2.036,0,0,0-.972-.59,5.665,5.665,0,0,0-1.568-.18Z" transform="translate(-557.418 -427.948)" fill="#fff"/>
      <path id="Path_24" data-name="Path 24" d="M724.381,451.306a12.263,12.263,0,0,1,3.28.377,4.773,4.773,0,0,1,2.134,1.18,4.6,4.6,0,0,1,1.146,2.065,11.506,11.506,0,0,1,.348,3.031v8.717a6.8,6.8,0,0,1-.1,1.294,1.781,1.781,0,0,1-.348.8,1.279,1.279,0,0,1-.653.41,3.925,3.925,0,0,1-1.045.115H715.324a6.984,6.984,0,0,1-2.134-.279,3.2,3.2,0,0,1-1.379-.836,3.166,3.166,0,0,1-.74-1.442,8.868,8.868,0,0,1-.218-2.1v-1.573a6.965,6.965,0,0,1,.218-1.819,3.162,3.162,0,0,1,.74-1.36,3.208,3.208,0,0,1,1.379-.835,6.992,6.992,0,0,1,2.134-.279h11.815v-.623a5.4,5.4,0,0,0-.145-1.344,1.918,1.918,0,0,0-.493-.9,2.118,2.118,0,0,0-.958-.508,6.2,6.2,0,0,0-1.568-.164H711.84q-.523,0-.522-.59V451.9q0-.59.522-.59Zm1.916,14.387a.776.776,0,0,0,.653-.246,1.481,1.481,0,0,0,.189-.869v-2.884H716.514a1.626,1.626,0,0,0-1.263.41,1.751,1.751,0,0,0-.363,1.2v.688a1.918,1.918,0,0,0,.363,1.294,1.624,1.624,0,0,0,1.263.41Z" transform="translate(-620.138 -444.653)" fill="#fff"/>
      <path id="Path_25" data-name="Path 25" d="M811,434.6v-5.866q0-.72.639-.721h2.845q.638,0,.639.721v17.238a11.494,11.494,0,0,1-.348,3.031,4.3,4.3,0,0,1-3.28,3.228,12.76,12.76,0,0,1-3.28.361h-8.128a12.721,12.721,0,0,1-3.295-.361A4.311,4.311,0,0,1,793.522,449a11.508,11.508,0,0,1-.348-3.031v-4.719a11.509,11.509,0,0,1,.348-3.031,4.6,4.6,0,0,1,1.147-2.065,4.764,4.764,0,0,1,2.119-1.18,12.225,12.225,0,0,1,3.295-.377ZM807.8,448.66a5.655,5.655,0,0,0,1.568-.18,2.029,2.029,0,0,0,.973-.59,2.359,2.359,0,0,0,.508-1.1,8.64,8.64,0,0,0,.145-1.737v-6.522H800.489a5.534,5.534,0,0,0-1.539.18,2.035,2.035,0,0,0-.973.59,2.367,2.367,0,0,0-.508,1.114,8.668,8.668,0,0,0-.145,1.721v2.917a8.613,8.613,0,0,0,.145,1.737,2.353,2.353,0,0,0,.508,1.1,2.028,2.028,0,0,0,.973.59,5.526,5.526,0,0,0,1.539.18Z" transform="translate(-679.178 -427.948)" fill="#fff"/>
      <path id="Path_26" data-name="Path 26" d="M887.013,427.782q.638,0,.639.721v3.113q0,.754-.639.754h-2.845q-.668,0-.668-.754V428.5q0-.72.668-.721Zm0,6.653q.638,0,.639.754v16.517q0,.722-.639.721h-2.845q-.639,0-.639-.721V435.189q0-.753.639-.754Z" transform="translate(-743.96 -427.782)" fill="#fff"/>
      <path id="Path_27" data-name="Path 27" d="M922.484,451.306a12.263,12.263,0,0,1,3.28.377,4.773,4.773,0,0,1,2.134,1.18,4.6,4.6,0,0,1,1.147,2.065,11.509,11.509,0,0,1,.348,3.031v8.717a6.8,6.8,0,0,1-.1,1.294,1.781,1.781,0,0,1-.348.8,1.279,1.279,0,0,1-.653.41,3.925,3.925,0,0,1-1.045.115H913.426a6.983,6.983,0,0,1-2.134-.279,3.2,3.2,0,0,1-1.379-.836,3.165,3.165,0,0,1-.74-1.442,8.865,8.865,0,0,1-.218-2.1v-1.573a6.963,6.963,0,0,1,.218-1.819,3.161,3.161,0,0,1,.74-1.36,3.211,3.211,0,0,1,1.379-.835,6.991,6.991,0,0,1,2.134-.279h11.815v-.623a5.394,5.394,0,0,0-.145-1.344,1.913,1.913,0,0,0-.493-.9,2.115,2.115,0,0,0-.958-.508,6.2,6.2,0,0,0-1.568-.164H909.943q-.523,0-.523-.59V451.9q0-.59.523-.59Zm1.916,14.387a.777.777,0,0,0,.653-.246,1.481,1.481,0,0,0,.188-.869v-2.884H914.617a1.626,1.626,0,0,0-1.263.41,1.749,1.749,0,0,0-.363,1.2v.688a1.917,1.917,0,0,0,.363,1.294,1.624,1.624,0,0,0,1.263.41Z" transform="translate(-762.216 -444.653)" fill="#fff"/>
    </g>
    <g id="Group_3" data-name="Group 3" transform="translate(98.428 366.139)">
      <path id="Path_28" data-name="Path 28" d="M293.27,396.561l-4.1,7.418-6.526,11.8a2.727,2.727,0,0,0,0,2.691,2.5,2.5,0,0,0,2.236,1.347h21.8a2.508,2.508,0,0,0,2.234-1.347,2.73,2.73,0,0,0,0-2.694l-7.913-14.3.015-.008-1.483-2.682-2.511,4.54,6.613,11.953H287.9l7.86-14.209v0l2.511-4.54h0l3.92-7.084a3.783,3.783,0,0,0,2.985-1.973,4.059,4.059,0,0,0-1.39-5.418,3.715,3.715,0,0,0-5.193,1.452,4.11,4.11,0,0,0-.144,3.682l-2.673,4.834Zm7.2-11.927a1.606,1.606,0,0,1,2.244-.627,1.757,1.757,0,0,1,.6,2.343,1.605,1.605,0,0,1-2.244.626A1.756,1.756,0,0,1,300.466,384.634Z" transform="translate(-230.287 -377.172)" fill="#fff"/>
      <path id="Path_29" data-name="Path 29" d="M212.466,410.948a3.893,3.893,0,0,0-3.276,1.891l-5.607.008-5.263.006-8.6.008-3.156,0-3.105,0h-1.826l-4.361,0a15.207,15.207,0,0,1-2.875,4.159c-.183.191-.372.377-.563.558a15.181,15.181,0,0,1-10.47,4.192H121.743a17.542,17.542,0,0,1-12.707-5.462c-12.326-12.9-2.359-35.383,18.412-31.03,3.272-8.151,8.521-13.535,17.424-13.535a17.382,17.382,0,0,1,8.426,2.189c.1.058.207.115.31.174l-.081.145-15.6,28.108a3.832,3.832,0,0,0-3.027,2,4.114,4.114,0,0,0,1.408,5.489,3.767,3.767,0,0,0,5.262-1.469,4.183,4.183,0,0,0,.152-3.718L151.81,386.5l5.9-10.646.176-.319h0l-.176.319-.5.9,3.753,6.784,2.544-4.6-1.706-3.086-.176-.319-1.87-3.381a8.3,8.3,0,0,0-1.629-1.681c-.046-.035-.3-.215-.611-.427a22.55,22.55,0,0,0-12.644-3.905,23.305,23.305,0,0,0-20.619,12.9l-.152-.079c-.837-.079-1.6-.079-2.358-.079-20.468,0-31.2,26.042-16.512,41.4a23.173,23.173,0,0,0,16.512,7.124h41.616a20.535,20.535,0,0,0,14.837-6.413,21.209,21.209,0,0,0,1.955-2.354q.281-.392.541-.794l2.4,0,12.622-.016h0l5.266-.007h0l8.218-.007a3.9,3.9,0,0,0,3.283,1.883,4.393,4.393,0,0,0-.011-8.749Zm-72.787-3.694a1.627,1.627,0,0,1-2.273.632,1.779,1.779,0,0,1-.61-2.372,1.63,1.63,0,0,1,2.274-.635A1.781,1.781,0,0,1,139.678,407.254Zm72.794,9.961a1.9,1.9,0,1,1,1.719-1.894A1.814,1.814,0,0,1,212.472,417.215Z" transform="translate(-98.428 -366.139)" fill="#fff"/>
    </g>
    <path id="Path_30" data-name="Path 30" d="M408.209,597.734v.006h-1.8c-.11,0-.221,0-.328-.006Z" transform="translate(-220.647 -166.098)" fill="#fff"/>
    <g id="Group_4" data-name="Group 4" transform="translate(181.049 418.208)">
      <path id="Path_31" data-name="Path 31" d="M439.962,565.938q0,2.545-1.516,2.548H394.653a1.6,1.6,0,0,1-1-1.1,1.877,1.877,0,0,1-.088-.6q0-1.688,2.288-1.688h.5v-3.131h-.447q-5.332,0-5.334,5.1a6.141,6.141,0,0,0,.345,2.132.469.469,0,0,1,.023.057q1.031,2.52,4.584,2.627h42.922q4.56,0,4.562-5.942v-4.253h-3.046Z" transform="translate(-390.572 -558.452)" fill="#fff"/>
      <path id="Path_32" data-name="Path 32" d="M484.909,602.1a1.391,1.391,0,0,0-1.076.491,1.752,1.752,0,0,0-.453,1.213,1.7,1.7,0,0,0,.453,1.2,1.426,1.426,0,0,0,2.152,0,1.7,1.7,0,0,0,.452-1.2,1.754,1.754,0,0,0-.452-1.213A1.391,1.391,0,0,0,484.909,602.1Z" transform="translate(-457.133 -587.439)" fill="#fff"/>
      <path id="Path_33" data-name="Path 33" d="M620.371,558.023q0,2.545-1.516,2.548H607.3a7.451,7.451,0,0,0,.184-1.705q0-5.095-5.331-5.1H598.5v3.408h.011l2.387,3.394H586.1v-6.787H583.06V563.4a1.931,1.931,0,0,1-.478,1.309,1.54,1.54,0,0,1-2.347,0l-.037-.057-2.226,2.33.048.054.062.071a4.364,4.364,0,0,0,6.652,0,5.238,5.238,0,0,0,1.346-3.148h32.775q4.56,0,4.562-5.942v-7.769h-3.046Zm-16.657,2.22-2.141-3.066h.577q2.287,0,2.285,1.688A1.471,1.471,0,0,1,603.713,560.243Z" transform="translate(-524.974 -550.254)" fill="#fff"/>
      <rect id="Rectangle_3" data-name="Rectangle 3" width="3.045" height="13.709" transform="translate(99.946 0)" fill="#fff"/>
      <path id="Path_34" data-name="Path 34" d="M823.545,602.873a1.4,1.4,0,0,0-1.076.5,1.853,1.853,0,0,0,0,2.4,1.439,1.439,0,0,0,2.165,0,1.853,1.853,0,0,0,0-2.4A1.412,1.412,0,0,0,823.545,602.873Z" transform="translate(-700.009 -587.992)" fill="#fff"/>
      <path id="Path_35" data-name="Path 35" d="M790.138,558.023v-4.251h-3.045v4.251q0,2.535-1.529,2.535h-2.446v.014h-9.184q-1.529,0-1.529-2.548v-7.767H769.36v7.767q0,5.942,4.574,5.942h11.63Q790.138,563.965,790.138,558.023Z" transform="translate(-662.235 -550.255)" fill="#fff"/>
      <path id="Path_36" data-name="Path 36" d="M835.883,602.969a1.376,1.376,0,0,0-1.076.5,1.816,1.816,0,0,0,0,2.4,1.426,1.426,0,0,0,2.152,0,1.853,1.853,0,0,0,0-2.4A1.374,1.374,0,0,0,835.883,602.969Z" transform="translate(-708.848 -588.061)" fill="#fff"/>
      <path id="Path_37" data-name="Path 37" d="M850.292,562.687h-.5v3.407h.5q2.287,0,2.287,1.69t-2.287,1.7h-1.8v3.393h1.8q5.332,0,5.332-5.1T850.292,562.687Z" transform="translate(-718.99 -559.171)" fill="#fff"/>
      <path id="Path_38" data-name="Path 38" d="M903.992,553.772v4.251q0,2.549-1.529,2.548H882.6q-1.529,0-1.529-2.548v-7.767h-3.045v7.767q0,5.942,4.574,5.942h19.86q4.573,0,4.574-5.942v-4.251Z" transform="translate(-740.172 -550.255)" fill="#fff"/>
      <path id="Path_39" data-name="Path 39" d="M969.243,602.1a1.391,1.391,0,0,0-1.076.491,1.752,1.752,0,0,0-.453,1.213,1.7,1.7,0,0,0,.453,1.2,1.426,1.426,0,0,0,2.152,0,1.731,1.731,0,0,0,.44-1.2,1.781,1.781,0,0,0-.44-1.213A1.392,1.392,0,0,0,969.243,602.1Z" transform="translate(-804.493 -587.439)" fill="#fff"/>
    </g>
    <rect id="Rectangle_4" data-name="Rectangle 4" width="91.885" height="2.383" transform="translate(256.204 446.869)" fill="#fff"/>
  </g>
</svg>
