<svg xmlns="http://www.w3.org/2000/svg" width="24.09" height="25.355" viewBox="0 0 24.09 25.355">
  <path id="home.1" d="M25.118,9.175a3.8,3.8,0,0,1,1.459,2.7l.013.255V22.411a4.968,4.968,0,0,1-4.717,4.945H19.351a2.321,2.321,0,0,1-2.27-2.141l-.013-.179V21.41a.8.8,0,0,0-.685-.787l-.114-.013H12.883a.8.8,0,0,0-.785.685l-.013.115v3.613a1.38,1.38,0,0,1-.025.227l-.013.027-.014.087a2.31,2.31,0,0,1-2.141,1.979l-.165.011H7.458A4.965,4.965,0,0,1,2.5,22.664V12.129A3.762,3.762,0,0,1,3.768,9.351L11.667,3a4.607,4.607,0,0,1,5.527-.152L17.4,3Zm-.3,13.438.014-.2V12.141a2.054,2.054,0,0,0-.634-1.431l-.165-.141L16.295,4.381a2.86,2.86,0,0,0-3.347-.139l-.191.139L5.048,10.6a1.965,1.965,0,0,0-.772,1.343l-.014.2v10.27a3.18,3.18,0,0,0,2.993,3.17H9.727a.547.547,0,0,0,.557-.455l.027-.228.013-.065V21.41a2.564,2.564,0,0,1,2.371-2.562H16.27a2.565,2.565,0,0,1,2.561,2.372v3.815a.556.556,0,0,0,.444.545h2.357A3.169,3.169,0,0,0,24.814,22.614Z" transform="translate(-2.5 -2)" fill="#fff" fill-rule="evenodd"/>
</svg>
