<svg xmlns="http://www.w3.org/2000/svg" width="15.559" height="18.606" viewBox="0 0 15.559 18.606">
  <path id="lock.1" d="M11.289,2a4.932,4.932,0,0,1,4.927,4.728l0,.2V8.4a4.227,4.227,0,0,1,2.839,3.993v3.99a4.225,4.225,0,0,1-4.225,4.225H7.726A4.225,4.225,0,0,1,3.5,16.38V12.39A4.227,4.227,0,0,1,6.34,8.4V6.91A4.93,4.93,0,0,1,11.289,2Zm3.536,4.932V8.165H7.735V6.913l.005-.182a3.545,3.545,0,0,1,7.084.2Zm.009,2.629H7.726A2.83,2.83,0,0,0,4.9,12.39v3.99a2.83,2.83,0,0,0,2.83,2.83h7.108a2.83,2.83,0,0,0,2.83-2.83V12.39A2.83,2.83,0,0,0,14.834,9.56Zm-2.863,3.7a.7.7,0,0,0-1.389.095v2.066l.006.095a.7.7,0,0,0,1.389-.095V13.352Z" transform="translate(-3.5 -2)" fill="#c4c6cc" fill-rule="evenodd"/>
</svg>
