<svg xmlns="http://www.w3.org/2000/svg" width="20.281" height="25.351" viewBox="0 0 20.281 25.351">
  <path id="profile.3" d="M14.146,2A6.763,6.763,0,1,0,20.88,8.763,6.748,6.748,0,0,0,14.146,2Zm0,1.835A4.928,4.928,0,1,1,9.239,8.763,4.917,4.917,0,0,1,14.146,3.835ZM11.39,18.251a21.194,21.194,0,0,0-2.965.42c-1.9.391-3.415,1.171-4.061,2.469A3.654,3.654,0,0,0,4,22.741a3.714,3.714,0,0,0,.356,1.588c.62,1.283,1.961,2.008,3.772,2.411l.324.068a19.48,19.48,0,0,0,2.956.429,2.879,2.879,0,0,0,.512.06l.183.007c.094,0,.2,0,.36,0a31.838,31.838,0,0,0,4.426-.07,19.849,19.849,0,0,0,2.383-.31l.592-.123c1.955-.386,3.419-1.119,4.061-2.472a3.71,3.71,0,0,0,0-3.174c-.64-1.349-2.085-2.077-4.076-2.487a21.454,21.454,0,0,0-2.374-.369l-.584-.049A31.289,31.289,0,0,0,11.39,18.251Zm5.341,1.828h.016a19.68,19.68,0,0,1,2.728.385c1.478.3,2.482.81,2.8,1.479a1.866,1.866,0,0,1,0,1.6,3.545,3.545,0,0,1-2.5,1.4l-.285.06a18.286,18.286,0,0,1-2.74.4,30.5,30.5,0,0,1-4.237.066l-.5-.009a2.459,2.459,0,0,1-.363-.042,19.676,19.676,0,0,1-2.376-.315l-.447-.095c-1.483-.291-2.5-.8-2.824-1.476a1.869,1.869,0,0,1-.176-.8A1.8,1.8,0,0,1,6,21.949,4.1,4.1,0,0,1,8.8,20.467a19.509,19.509,0,0,1,2.734-.387A29.538,29.538,0,0,1,16.731,20.079Z" transform="translate(-4 -2)" fill="#fff" fill-rule="evenodd"/>
</svg>
