<svg id="scan.2" xmlns="http://www.w3.org/2000/svg" width="24.911" height="20.382" viewBox="0 0 24.911 20.382">
  <path id="Path_15465" data-name="Path 15465" d="M10.031,3.846A.854.854,0,0,0,9.169,3H7.323a4.468,4.468,0,0,0-4.5,4.418V9.524a.862.862,0,0,0,1.725,0V7.419A2.758,2.758,0,0,1,7.325,4.692H9.169A.853.853,0,0,0,10.031,3.846ZM19.095,3h-1.8a.845.845,0,1,0,0,1.69h1.8a2.763,2.763,0,0,1,2.787,2.733v2.1a.862.862,0,0,0,1.723,0v-2.1A4.471,4.471,0,0,0,19.095,3ZM10.087,7.238h6.255A2.559,2.559,0,0,1,18.912,9.8v1.41a.317.317,0,0,1-.309.3H7.824a.314.314,0,0,1-.306-.3V9.8A2.569,2.569,0,0,1,10.087,7.238Z" transform="translate(-0.759 -3)" fill="#223535" fill-rule="evenodd" opacity="0.4"/>
  <path id="Path_15466" data-name="Path 15466" d="M25.049,12.041H1.863a.845.845,0,1,0,0,1.69h1.2v4.035a4.469,4.469,0,0,0,4.5,4.418H9.41a.846.846,0,1,0,0-1.691H7.567a2.759,2.759,0,0,1-2.779-2.727V13.731h2.97v1.123a2.569,2.569,0,0,0,2.569,2.566h6.255a2.569,2.569,0,0,0,2.57-2.566V13.731h2.97v4.031a2.762,2.762,0,0,1-2.787,2.732h-1.8a.846.846,0,1,0,0,1.691h1.8a4.472,4.472,0,0,0,4.51-4.424V13.731h1.2a.845.845,0,1,0,0-1.69Z" transform="translate(-1 -1.804)" fill="#223535"/>
</svg>
