<svg xmlns="http://www.w3.org/2000/svg" width="15.497" height="15.497" viewBox="0 0 15.497 15.497">
  <path id="search" d="M9.447,2A7.366,7.366,0,0,0,2,9.283a7.366,7.366,0,0,0,7.447,7.283,7.521,7.521,0,0,0,4.65-1.594l2.421,2.361.064.054a.583.583,0,0,0,.747-.055.552.552,0,0,0,0-.793l-2.392-2.333a7.169,7.169,0,0,0,1.959-4.922A7.366,7.366,0,0,0,9.447,2Zm0,1.122a6.232,6.232,0,0,1,6.3,6.161,6.232,6.232,0,0,1-6.3,6.161,6.232,6.232,0,0,1-6.3-6.161A6.232,6.232,0,0,1,9.447,3.122Z" transform="translate(-2 -2)" fill="#fff" fill-rule="evenodd"/>
</svg>
