<svg xmlns="http://www.w3.org/2000/svg" width="24.08" height="25.348" viewBox="0 0 24.08 25.348">
  <path id="setting.2" d="M15.321,2H13.756a3.348,3.348,0,0,0-2.349.956,3.218,3.218,0,0,0-.953,2.019l-.011.246A1.443,1.443,0,0,1,8.99,6.647a1.362,1.362,0,0,1-.539-.12l-.169-.088a3.354,3.354,0,0,0-4.5,1.217L2.956,8.979A3.222,3.222,0,0,0,3.925,13.3l.2.123a1.438,1.438,0,0,1,.761,1.253,1.414,1.414,0,0,1-.625,1.17l-.133.082a3.2,3.2,0,0,0-1.3,4.178l.107.2.808,1.366a3.3,3.3,0,0,0,1.99,1.539A3.388,3.388,0,0,0,8,23.049l.226-.11a1.5,1.5,0,0,1,1.14-.17,1.426,1.426,0,0,1,.871.657,1.324,1.324,0,0,1,.187.535l.011.187a3.278,3.278,0,0,0,3.323,3.2h1.566a3.3,3.3,0,0,0,3.314-2.989l.01-.217a1.429,1.429,0,0,1,.423-1.049,1.456,1.456,0,0,1,1.026-.413,1.507,1.507,0,0,1,.551.127l.172.087a3.354,3.354,0,0,0,4.345-.984l.126-.193.836-1.364a3.2,3.2,0,0,0,.345-2.481,3.247,3.247,0,0,0-1.3-1.824l-.212-.133a1.447,1.447,0,0,1-.709-.881,1.415,1.415,0,0,1,.567-1.526l.326-.2a3.215,3.215,0,0,0,1.12-4.061l-.072-.142A.906.906,0,0,0,26.132,9l-.777-1.321a3.361,3.361,0,0,0-4.293-1.323l-.208.105a1.5,1.5,0,0,1-1.136.173,1.438,1.438,0,0,1-.881-.652,1.31,1.31,0,0,1-.183-.526l-.011-.187a3.159,3.159,0,0,0-.938-2.28A3.359,3.359,0,0,0,15.321,2ZM13.756,3.835h1.566a1.467,1.467,0,0,1,1.042.431,1.407,1.407,0,0,1,.41,1.032l.017.319a3.153,3.153,0,0,0,.434,1.295,3.3,3.3,0,0,0,2.023,1.5,3.373,3.373,0,0,0,2.514-.345L21.893,8l.141-.055a1.467,1.467,0,0,1,1.7.65l.741,1.261.016.036.09.169a1.4,1.4,0,0,1-.6,1.8l-.2.126a3.275,3.275,0,0,0-1,1.061,3.185,3.185,0,0,0-.335,2.465,3.249,3.249,0,0,0,1.346,1.853l.345.214a1.4,1.4,0,0,1,.385,1.845L23.7,20.752l-.092.141a1.46,1.46,0,0,1-1.752.458l-.4-.2a3.472,3.472,0,0,0-1.328-.306,3.359,3.359,0,0,0-2.379.95,3.214,3.214,0,0,0-.971,2.311l-.007.138a1.435,1.435,0,0,1-1.445,1.269H13.756a1.442,1.442,0,0,1-1.444-1.268l-.026-.448a3.154,3.154,0,0,0-.434-1.295A3.284,3.284,0,0,0,9.848,21a3.362,3.362,0,0,0-2.518.331l-.138.066a1.471,1.471,0,0,1-1.828-.625l-.8-1.348-.071-.135a1.391,1.391,0,0,1,.6-1.79l.2-.122a3.22,3.22,0,0,0,0-5.4l-.33-.2a1.4,1.4,0,0,1-.4-1.856L5.39,8.589a1.474,1.474,0,0,1,1.991-.543l.244.126a3.3,3.3,0,0,0,4.68-2.7l.017-.386a1.383,1.383,0,0,1,.412-.837A1.456,1.456,0,0,1,13.756,3.835Zm.788,6.7a4.143,4.143,0,1,0,4.228,4.142A4.186,4.186,0,0,0,14.544,10.532Zm0,1.835a2.308,2.308,0,1,1-2.355,2.307A2.331,2.331,0,0,1,14.544,12.367Z" transform="translate(-2.5 -2)" fill="#fff" fill-rule="evenodd"/>
</svg>
