<svg xmlns="http://www.w3.org/2000/svg" width="13.174" height="10.779" viewBox="0 0 13.174 10.779">
  <path id="ticket.4" d="M11.693,3H3.481A2.474,2.474,0,0,0,1,5.468V7.117a.461.461,0,0,0,.4.458l.062,0a.824.824,0,0,1,.874.811.865.865,0,0,1-.874.862A.461.461,0,0,0,1,9.714v1.6a2.474,2.474,0,0,0,2.48,2.468h8.213a2.474,2.474,0,0,0,2.48-2.468v-1.6a.461.461,0,0,0-.46-.462.862.862,0,1,1,0-1.725.461.461,0,0,0,.46-.462v-1.6A2.474,2.474,0,0,0,11.693,3Zm0,.924.1,0a1.551,1.551,0,0,1,1.458,1.541V6.663l-.049.013A1.785,1.785,0,0,0,11.921,8.39l0,.105A1.785,1.785,0,0,0,13.2,10.1l.05.013v1.194a1.552,1.552,0,0,1-1.561,1.544H9.18v-.918l0-.063a.459.459,0,0,0-.915.063v.918H3.48l-.1,0a1.551,1.551,0,0,1-1.458-1.541V10.116l.05-.013A1.784,1.784,0,0,0,3.253,8.39l0-.1A1.718,1.718,0,0,0,1.971,6.724l-.052-.013V5.468A1.553,1.553,0,0,1,3.481,3.924h4.78V5.107l0,.063a.459.459,0,0,0,.915-.063V3.924ZM8.72,6.39a.461.461,0,0,1,.455.4l0,.063V9.821a.459.459,0,0,1-.915.063l0-.063V6.852A.461.461,0,0,1,8.72,6.39Z" transform="translate(-1 -3)" fill="#223535" fill-rule="evenodd"/>
</svg>
