<svg xmlns="http://www.w3.org/2000/svg" width="18" height="24" viewBox="0 0 18 24">
  <g id="to-do_list" data-name="to-do list" transform="translate(-4925 -1000)">
    <g id="Rectangle_3165" data-name="Rectangle 3165" transform="translate(4925 1001)" fill="none" stroke="#fff" stroke-width="1">
      <rect width="18" height="23" rx="3" stroke="none"/>
      <rect x="0.5" y="0.5" width="17" height="22" rx="2.5" fill="none"/>
    </g>
    <g id="Rectangle_3166" data-name="Rectangle 3166" transform="translate(4928 1000)" fill="#223535" stroke="#fff" stroke-width="1">
      <rect width="12" height="4" rx="2" stroke="none"/>
      <rect x="0.5" y="0.5" width="11" height="3" rx="1.5" fill="none"/>
    </g>
    <g id="Group_3705" data-name="Group 3705">
      <g id="Group_3704" data-name="Group 3704" transform="translate(0 0.5)">
        <line id="Line_11" data-name="Line 11" x1="5" transform="translate(4934.5 1017.5)" fill="none" stroke="#fff" stroke-linecap="round" stroke-width="1"/>
        <path id="Path_15853" data-name="Path 15853" d="M4928.346,1018l1.236,1.236,2.446-2.446" transform="translate(0 -0.29)" fill="none" stroke="#fff" stroke-linecap="round" stroke-linejoin="round" stroke-width="1"/>
      </g>
      <g id="Group_3703" data-name="Group 3703" transform="translate(0 0.5)">
        <line id="Line_10" data-name="Line 10" x1="5" transform="translate(4934.5 1012.5)" fill="none" stroke="#fff" stroke-linecap="round" stroke-width="1"/>
        <path id="Path_15854" data-name="Path 15854" d="M4928.346,1018l1.236,1.236,2.446-2.446" transform="translate(0 -5.29)" fill="none" stroke="#fff" stroke-linecap="round" stroke-linejoin="round" stroke-width="1"/>
      </g>
      <g id="Group_3702" data-name="Group 3702" transform="translate(0 0.5)">
        <line id="Line_9" data-name="Line 9" x1="5" transform="translate(4934.5 1007.5)" fill="none" stroke="#fff" stroke-linecap="round" stroke-width="1"/>
        <path id="Path_15855" data-name="Path 15855" d="M4928.346,1018l1.236,1.236,2.446-2.446" transform="translate(0 -10.29)" fill="none" stroke="#fff" stroke-linecap="round" stroke-linejoin="round" stroke-width="1"/>
      </g>
    </g>
  </g>
</svg>
