<svg xmlns="http://www.w3.org/2000/svg" width="12.448" height="11.826" viewBox="0 0 12.448 11.826">
  <path id="wallet.3" d="M5.617,2.5h5.213a3.659,3.659,0,0,1,3.617,3.7v4.427a3.659,3.659,0,0,1-3.617,3.7H5.617A3.659,3.659,0,0,1,2,10.626V6.2A3.659,3.659,0,0,1,5.617,2.5Zm7.926,3.7v.01H11.554l-.114,0a2.124,2.124,0,0,0,.114,4.242h1.99v.172A2.744,2.744,0,0,1,10.831,13.4H5.617A2.744,2.744,0,0,1,2.9,10.626V6.2A2.744,2.744,0,0,1,5.617,3.425h5.213A2.744,2.744,0,0,1,13.543,6.2Zm-1.989.935h1.989V9.529H11.554l-.092,0a1.2,1.2,0,0,1,.092-2.391Zm.728,1.159a.458.458,0,0,0-.452-.463h-.188l-.061,0a.463.463,0,0,0,.061.921h.188l.061,0A.459.459,0,0,0,12.283,8.294ZM8.9,5.762A.458.458,0,0,0,8.444,5.3H5.188l-.061,0a.463.463,0,0,0,.061.921H8.444l.061,0A.459.459,0,0,0,8.9,5.762Z" transform="translate(-2 -2.5)" fill="#223535" fill-rule="evenodd"/>
</svg>
